<?xml version="1.0" encoding="UTF-8"?>
<svg width="70px" height="73px" viewBox="0 0 70 73" version="1.1" xmlns="http://www.w3.org/2000/svg" xmlns:xlink="http://www.w3.org/1999/xlink">
    <title>Fill 1</title>
    <g id="Page-1" stroke="none" stroke-width="1" fill="none" fill-rule="evenodd">
        <g id="3_Profile-Owner" transform="translate(-103.000000, -2260.000000)" fill="#7F808B">
            <path d="M173,2328.96069 C173,2331.11125 171.261667,2332.84958 169.111111,2332.84958 L106.888889,2332.84958 C104.742222,2332.84958 103,2331.11125 103,2328.96069 L103,2288.08847 C103,2286.88681 103.552222,2285.75514 104.501111,2285.01625 L135.612222,2260.81958 C137.016111,2259.72681 138.983889,2259.72681 140.387778,2260.81958 L171.498889,2285.01625 C172.443889,2285.75514 173,2286.88681 173,2288.08847 L173,2328.96069 Z M141.888889,2325.07181 L165.222222,2325.07181 L165.222222,2289.98625 L138,2268.81514 L110.777778,2289.98625 L110.777778,2325.07181 L134.111111,2325.07181 L134.111111,2301.73847 L141.888889,2301.73847 L141.888889,2325.07181 Z" id="Fill-1"></path>
        </g>
    </g>
</svg>