<svg xmlns="http://www.w3.org/2000/svg" width="67.713" height="67.713" viewBox="0 0 67.713 67.713">
  <path fill="rgb(128,129,140)" fill-rule="evenodd" d="M60 30C60 13.4399414 46.55664062 0 30 0 13.44000244 0 0 13.4399414 0 30c0 16.55664063 13.44000244 30 30 30 16.55664063 0 30-13.44335938 30-30zM30 53.3334961c12.89001465 0 23.33337402-10.44335938 23.33337402-23.3334961C53.33337402 17.10668945 42.89001465 6.66674805 30 6.66674805 17.10333252 6.66674805 6.66668701 17.10668945 6.66668701 30c0 12.89013672 10.43664551 23.3334961 23.33331299 23.3334961zm28.2833252.23657226l9.42999267 9.42675781-4.71661377 4.71655274-9.42669678-9.42993164 4.71331788-4.71337891z"/>
</svg>
