<svg xmlns="http://www.w3.org/2000/svg" width="65" height="70" viewBox="0 0 65 70">
  <path fill="rgb(10,116,238)" fill-rule="evenodd" d="M7.80072021.6442871l54.46429444 29.75268556C63.95166015 31.3190918 65 33.08349609 65 35c0 1.9165039-1.04833984 3.6809082-2.73498535 4.60302734L7.8007202 69.3557129c-1.63250732.88964844-3.6151123.85595703-5.21618652-.08886719C.98345947 68.32226562.00109863 66.60644531 0 64.75268555V5.24731445C.00109863 3.3935547.98345947 1.67773437 2.5845337.7331543 4.1856079-.21166992 6.1682129-.24536133 7.8007202.6442871zM5.27075195 38.50024415v26.2524414L59.73510742 35 5.27075195 5.24731445v28.0024414H28.1105957c1.45544434 0 2.63537598 1.17553712 2.63537598 2.62524415 0 1.44995117-1.17993164 2.62524414-2.63537598 2.62524414H5.27075195z"/>
</svg>
